<mxfile host="app.diagrams.net" agent="Mozilla/5.0 (Windows NT 10.0; Win64; x64) AppleWebKit/537.36 (KHTML, like Gecko) Chrome/128.0.0.0 Safari/537.36" version="24.7.7">
  <diagram name="Page-1" id="6VgZRosnZfVc24hg2JfK">
    <mxGraphModel dx="1050" dy="625" grid="1" gridSize="10" guides="1" tooltips="1" connect="1" arrows="1" fold="1" page="1" pageScale="1" pageWidth="850" pageHeight="1100" math="0" shadow="0">
      <root>
        <mxCell id="0" />
        <mxCell id="1" parent="0" />
        <mxCell id="qEq92O26iCl5FzZW6bfr-1" value="CLIENTS" style="whiteSpace=wrap;html=1;aspect=fixed;" vertex="1" parent="1">
          <mxGeometry x="385" y="20" width="80" height="80" as="geometry" />
        </mxCell>
        <mxCell id="qEq92O26iCl5FzZW6bfr-8" style="edgeStyle=orthogonalEdgeStyle;rounded=0;orthogonalLoop=1;jettySize=auto;html=1;" edge="1" parent="1" source="qEq92O26iCl5FzZW6bfr-3" target="qEq92O26iCl5FzZW6bfr-5">
          <mxGeometry relative="1" as="geometry" />
        </mxCell>
        <mxCell id="qEq92O26iCl5FzZW6bfr-3" value="" style="outlineConnect=0;dashed=0;verticalLabelPosition=bottom;verticalAlign=top;align=center;html=1;shape=mxgraph.aws3.application_load_balancer;fillColor=#F58534;gradientColor=none;" vertex="1" parent="1">
          <mxGeometry x="391" y="160" width="69" height="72" as="geometry" />
        </mxCell>
        <mxCell id="qEq92O26iCl5FzZW6bfr-4" style="edgeStyle=orthogonalEdgeStyle;rounded=0;orthogonalLoop=1;jettySize=auto;html=1;entryX=0.5;entryY=0;entryDx=0;entryDy=0;entryPerimeter=0;" edge="1" parent="1" source="qEq92O26iCl5FzZW6bfr-1" target="qEq92O26iCl5FzZW6bfr-3">
          <mxGeometry relative="1" as="geometry" />
        </mxCell>
        <mxCell id="qEq92O26iCl5FzZW6bfr-7" style="edgeStyle=orthogonalEdgeStyle;rounded=0;orthogonalLoop=1;jettySize=auto;html=1;" edge="1" parent="1" source="qEq92O26iCl5FzZW6bfr-5" target="qEq92O26iCl5FzZW6bfr-6">
          <mxGeometry relative="1" as="geometry" />
        </mxCell>
        <mxCell id="qEq92O26iCl5FzZW6bfr-11" style="edgeStyle=orthogonalEdgeStyle;rounded=0;orthogonalLoop=1;jettySize=auto;html=1;" edge="1" parent="1" source="qEq92O26iCl5FzZW6bfr-5" target="qEq92O26iCl5FzZW6bfr-9">
          <mxGeometry relative="1" as="geometry">
            <Array as="points">
              <mxPoint x="610" y="370" />
              <mxPoint x="610" y="504" />
            </Array>
          </mxGeometry>
        </mxCell>
        <mxCell id="qEq92O26iCl5FzZW6bfr-5" value="" style="sketch=0;outlineConnect=0;fontColor=#232F3E;gradientColor=none;fillColor=#232F3D;strokeColor=none;dashed=0;verticalLabelPosition=bottom;verticalAlign=top;align=center;html=1;fontSize=12;fontStyle=0;aspect=fixed;pointerEvents=1;shape=mxgraph.aws4.servers;" vertex="1" parent="1">
          <mxGeometry x="391" y="320" width="69" height="69" as="geometry" />
        </mxCell>
        <mxCell id="qEq92O26iCl5FzZW6bfr-6" value="" style="image;sketch=0;aspect=fixed;html=1;points=[];align=center;fontSize=12;image=img/lib/mscae/Azure_Database_for_MySQL_servers.svg;" vertex="1" parent="1">
          <mxGeometry x="230" y="490" width="68.4" height="90" as="geometry" />
        </mxCell>
        <mxCell id="qEq92O26iCl5FzZW6bfr-10" style="edgeStyle=orthogonalEdgeStyle;rounded=0;orthogonalLoop=1;jettySize=auto;html=1;entryX=0.5;entryY=1;entryDx=0;entryDy=0;" edge="1" parent="1" source="qEq92O26iCl5FzZW6bfr-9" target="qEq92O26iCl5FzZW6bfr-1">
          <mxGeometry relative="1" as="geometry">
            <Array as="points">
              <mxPoint x="668" y="350" />
              <mxPoint x="510" y="350" />
              <mxPoint x="510" y="120" />
              <mxPoint x="425" y="120" />
            </Array>
          </mxGeometry>
        </mxCell>
        <mxCell id="qEq92O26iCl5FzZW6bfr-9" value="" style="outlineConnect=0;dashed=0;verticalLabelPosition=bottom;verticalAlign=top;align=center;html=1;shape=mxgraph.aws3.s3;fillColor=#E05243;gradientColor=none;" vertex="1" parent="1">
          <mxGeometry x="630" y="457" width="76.5" height="93" as="geometry" />
        </mxCell>
        <mxCell id="qEq92O26iCl5FzZW6bfr-17" style="edgeStyle=orthogonalEdgeStyle;rounded=0;orthogonalLoop=1;jettySize=auto;html=1;" edge="1" parent="1" source="qEq92O26iCl5FzZW6bfr-12" target="qEq92O26iCl5FzZW6bfr-5">
          <mxGeometry relative="1" as="geometry" />
        </mxCell>
        <mxCell id="qEq92O26iCl5FzZW6bfr-12" value="" style="image;sketch=0;aspect=fixed;html=1;points=[];align=center;fontSize=12;image=img/lib/mscae/Azure_Database_for_MySQL_servers.svg;" vertex="1" parent="1">
          <mxGeometry x="360" y="490" width="38" height="50" as="geometry" />
        </mxCell>
        <mxCell id="qEq92O26iCl5FzZW6bfr-18" style="edgeStyle=orthogonalEdgeStyle;rounded=0;orthogonalLoop=1;jettySize=auto;html=1;" edge="1" parent="1" source="qEq92O26iCl5FzZW6bfr-13" target="qEq92O26iCl5FzZW6bfr-5">
          <mxGeometry relative="1" as="geometry" />
        </mxCell>
        <mxCell id="qEq92O26iCl5FzZW6bfr-13" value="" style="image;sketch=0;aspect=fixed;html=1;points=[];align=center;fontSize=12;image=img/lib/mscae/Azure_Database_for_MySQL_servers.svg;" vertex="1" parent="1">
          <mxGeometry x="427" y="490" width="38" height="50" as="geometry" />
        </mxCell>
        <mxCell id="qEq92O26iCl5FzZW6bfr-15" style="edgeStyle=orthogonalEdgeStyle;rounded=0;orthogonalLoop=1;jettySize=auto;html=1;entryX=0.2;entryY=0.912;entryDx=0;entryDy=0;entryPerimeter=0;" edge="1" parent="1" source="qEq92O26iCl5FzZW6bfr-6" target="qEq92O26iCl5FzZW6bfr-12">
          <mxGeometry relative="1" as="geometry" />
        </mxCell>
        <mxCell id="qEq92O26iCl5FzZW6bfr-16" style="edgeStyle=orthogonalEdgeStyle;rounded=0;orthogonalLoop=1;jettySize=auto;html=1;entryX=0.605;entryY=1;entryDx=0;entryDy=0;entryPerimeter=0;" edge="1" parent="1" source="qEq92O26iCl5FzZW6bfr-6" target="qEq92O26iCl5FzZW6bfr-13">
          <mxGeometry relative="1" as="geometry">
            <Array as="points">
              <mxPoint x="450" y="560" />
            </Array>
          </mxGeometry>
        </mxCell>
        <mxCell id="qEq92O26iCl5FzZW6bfr-19" value="Master" style="text;html=1;align=center;verticalAlign=middle;whiteSpace=wrap;rounded=0;" vertex="1" parent="1">
          <mxGeometry x="220" y="580" width="60" height="30" as="geometry" />
        </mxCell>
        <mxCell id="qEq92O26iCl5FzZW6bfr-20" value="Slaves" style="text;html=1;align=center;verticalAlign=middle;whiteSpace=wrap;rounded=0;" vertex="1" parent="1">
          <mxGeometry x="380" y="460" width="60" height="30" as="geometry" />
        </mxCell>
      </root>
    </mxGraphModel>
  </diagram>
</mxfile>
